<?xml version="1.0" encoding="UTF-8" standalone="no"?>
<!DOCTYPE svg PUBLIC "-//W3C//DTD SVG 1.1//EN" "http://www.w3.org/Graphics/SVG/1.1/DTD/svg11.dtd">
<svg width="100%" height="100%" viewBox="0 0 298 172" version="1.1" style="fill-rule:evenodd;clip-rule:evenodd;stroke-linejoin:round;stroke-miterlimit:2;">
    <g transform="matrix(0.961397,0,0,0.961397,-5.83402,-48.4952)">
        <path d="M14.412,160.051L6.068,126.675L28.354,92.541L57.292,92.541L71.799,78.129L91.403,78.129L97.851,65.613L140.708,58.786L164.223,78.129L191.53,50.442L249.558,50.442L268.521,83.439L300,105.436L315.55,150L284.071,197.598L203.287,209.735L191.53,203.666L135.777,228.319L57.292,203.666L49.259,186.782L33.877,182.837L14.412,160.051Z" style="fill:rgb(227,253,255);"/>
    </g>
    <g transform="matrix(1,0,0,1,-3.1201,-55.5234)">
        <path d="M33.375,175.601L49.305,175.601L54.994,194.943L92.541,208.249L54.994,183.145L49.305,166.119L33.375,175.601Z" style="fill:rgb(202,203,245);"/>
    </g>
    <g transform="matrix(1,0,0,1,-0.465234,-53.706)">
        <path d="M124.779,217.32L183.944,197.219L194.943,202.528L267.383,185.477L291.277,150L238.938,185.477L223.767,166.877L188.496,150L146.397,192.668L124.779,179.772L102.023,192.668L124.779,217.32Z" style="fill:rgb(202,203,245);"/>
    </g>
</svg>
