<?xml version="1.0" encoding="UTF-8" standalone="no"?>
<!DOCTYPE svg PUBLIC "-//W3C//DTD SVG 1.1//EN" "http://www.w3.org/Graphics/SVG/1.1/DTD/svg11.dtd">
<svg width="100%" height="100%" viewBox="0 0 275 178" version="1.1" style="fill-rule:evenodd;clip-rule:evenodd;stroke-linejoin:round;stroke-miterlimit:2;">
    <g transform="matrix(1,0,0,1,-8.72314,-56.5107)">
        <path d="M8.723,150L34.134,113.021L63.717,120.607L73.578,93.679L127.054,75.095L141.087,88.748L184.324,56.511L241.972,93.679L245.765,120.607L265.107,126.296L273.072,164.223L283.692,187.358L229.456,227.56L133.123,234.008L73.578,209.355L63.717,190.771L27.307,183.565L8.723,150Z" style="fill:rgb(227,253,255);"/>
    </g>
    <g transform="matrix(1,0,0,1,-8.72314,-56.5107)">
        <path d="M67.13,161.188L59.545,170.629L63.717,183.186L44.332,181.289L15.544,153.697L28.824,179.772L63.717,190.771L76.413,210.529L133.881,227.56L226.422,221.113L262.832,190.771L216.182,215.803L186.41,210.529L189.254,196.46L164.383,161.188L110.613,196.46L117.692,177.887L76.413,185.841L76.413,173.7L114.955,150L71.862,161.188L90.755,135.106L122.124,119.09L86.51,127.624L67.13,161.188Z" style="fill:rgb(202,203,245);"/>
    </g>
</svg>
