<svg xmlns="http://www.w3.org/2000/svg" xmlns:xlink="http://www.w3.org/1999/xlink" width="100%" height="100%" viewBox="0 0 225 150" version="1.1" fillRule="evenodd" clipRule="evenodd" strokeLinejoin="round" strokeMiterlimit="2">
    <g transform="matrix(0.75,0,0,0.75,0,-9.35181)">
        <g transform="matrix(1,0,0,1,-4.56527,-1.1378)">
            <path d="M4.565,131.226C4.565,154.893 38.678,162.161 38.678,162.161C43.724,179.784 63.842,189.289 95.977,192.009C132.412,195.094 152.74,177.497 152.74,177.497C152.74,177.497 169.756,191.245 198.836,188.87C237.107,185.744 256.777,172.097 256.777,172.097C256.777,172.097 304.565,175.096 304.565,151.138C304.565,131.226 264.558,131.226 264.558,131.226C264.558,131.226 265.03,84.593 237.703,79.458C218.571,75.863 205.292,99.368 205.292,99.368C205.292,99.368 204.235,57.715 163.795,51.783C139.316,48.192 127.208,63.001 127.208,63.001C127.208,63.001 117.439,31.673 77.202,35.104C28.507,39.256 33.811,95.958 33.811,95.958C33.811,95.958 4.565,103.42 4.565,131.226Z" fill="rgb(227,253,255)"/>
        </g>
        <g transform="matrix(1,0,0,1,-10.1901,-3.70833)">
            <path d="M30.644,142.394C32.223,144.03 35.484,147.025 39.93,150.675C52.924,161.347 76.047,177.624 96.921,181.959C124.621,187.711 157.224,167.636 157.224,167.636C157.224,167.636 190.586,183.603 206.986,181.959C221.781,180.477 239.165,170.56 251.635,167.636C262.421,165.107 284.632,166.37 284.632,165.075C284.632,161.282 262.707,161.275 251.635,161.278C239.449,161.282 217.308,172.162 203.86,170.866C190.594,169.589 177.585,153.267 168.891,150.675C156.813,147.076 143.363,155.467 132.364,153.793C122.579,152.303 122.579,140.054 106.683,140.054C99.069,140.054 92.822,151.419 84.905,153.979C76.987,156.539 73.389,156.556 63.448,153.793C56.983,151.996 47.275,147.565 39.93,144.366C32.537,141.147 27.537,139.176 30.644,142.394Z" fill="rgb(202,203,245)"/>
        </g>
    </g>
</svg>