<?xml version="1.0" encoding="UTF-8" standalone="no"?>
<!DOCTYPE svg PUBLIC "-//W3C//DTD SVG 1.1//EN" "http://www.w3.org/Graphics/SVG/1.1/DTD/svg11.dtd">
<svg width="100%" height="100%" viewBox="0 0 278 192" version="1.1" style="fill-rule:evenodd;clip-rule:evenodd;stroke-linejoin:round;stroke-miterlimit:2;">
    <g transform="matrix(0.845693,0,0,0.845693,-16.7494,-23.735)">
        <path d="M56.131,210.346L19.806,138.432L56.131,108.091L75.095,59.166L120.607,55.373L157.775,28.066L218.898,55.373L264.816,51.959L312.137,75.942L325.002,135.165L348.166,165.507L312.137,223.388L176.8,254.399L95.663,232.782L56.131,210.346Z" style="fill:rgb(227,253,255);"/>
    </g>
    <g transform="matrix(0.910674,0,0,0.910674,-1.77636e-15,-36.8932)">
        <path d="M10.999,150L49.121,210.965L71.681,224.147L146.397,244.627L231.057,219.492L257.143,219.492L294.311,177.497L249.671,207.57L249.671,193.805L227.125,177.497L186.108,198.918L175.164,177.497L125.256,158.259L103.103,198.918L76.007,210.965L52.52,193.805L10.999,150" style="fill:rgb(202,203,245);"/>
    </g>
</svg>
