<svg xmlns="http://www.w3.org/2000/svg" xmlns:xlink="http://www.w3.org/1999/xlink" width="100%" height="100%" viewBox="0 0 225 150" version="1.1" fillRule="evenodd" clipRule="evenodd" strokeLinejoin="round" strokeMiterlimit="2">
    <g transform="matrix(0.793212,0,0,0.793212,-6.20649,-4.6243)">
        <g transform="matrix(0.747332,0,0,0.747332,3.71546,4.92122)">
            <path d="M36.882,150.141C35.467,142.822 32.418,129.625 34.479,122.192C40.497,100.495 68.579,73.776 100.789,97.245C100.789,97.245 94.54,74.34 110.495,55.598C126.338,36.989 173.486,33.204 178.564,61.66C195.742,18.33 255.782,32.618 262.983,65.062C266.246,79.76 264.321,87.71 259.731,92.719C259.731,92.719 263.655,86.198 270.964,84.345C298.098,77.468 317.768,91.763 315.879,122.192C355.956,125.064 369.494,148.722 364.672,186.76C364.672,186.76 385.707,188.677 385.042,206.145C384.013,233.209 249.631,215.993 248.547,209.654C248.547,209.654 233.477,219.768 188.989,220.511C129.046,221.513 98.712,203.77 98.712,203.77C69.469,214.709 -9.577,212.997 8.027,173.26C17.047,152.901 36.882,150.141 36.882,150.141Z" fill="rgb(227,253,255)"/>
        </g>
        <g transform="matrix(1,0,0,1,3.00067,-1.20027)">
            <path d="M26.388,140.092C20.088,148.443 34.164,155.843 41.704,157.314C50.167,158.965 63.535,146.768 75.163,150C91.442,154.524 124.041,166.689 141.712,162.49C153.614,159.662 165.908,150.863 176.219,150C185.627,149.213 196.29,155.633 205.579,157.314C217.081,159.396 246.658,163.709 247.234,162.49C247.809,161.271 217.41,154.596 209.029,150C203.382,146.903 202.681,137.86 196.952,134.916C190.461,131.581 174.741,133.93 168.086,129.987C161.537,126.106 161.248,113.267 155.022,111.254C148.797,109.241 138.215,114.105 130.731,117.909C122.974,121.853 114.985,133.273 108.476,134.916C102.576,136.406 97.086,130.557 91.677,127.768C81.854,122.703 68.884,123.139 60.896,127.768C53.357,132.137 47.456,141.66 41.704,143.714C36.764,145.479 29.717,135.681 26.388,140.092Z" fill="rgb(202,203,245)"/>
        </g>
    </g>
</svg>