<?xml version="1.0" encoding="UTF-8" standalone="no"?>
<!DOCTYPE svg PUBLIC "-//W3C//DTD SVG 1.1//EN" "http://www.w3.org/Graphics/SVG/1.1/DTD/svg11.dtd">
<svg width="100%" height="100%" viewBox="0 0 297 158" version="1.1" style="fill-rule:evenodd;clip-rule:evenodd;stroke-linejoin:round;stroke-miterlimit:2;">
    <g transform="matrix(1,0,0,1,3.4134,-40.5815)">
        <path d="M28.066,163.843L97.092,197.977L171.808,177.497L204.804,183.186L244.248,177.497L293.173,150L259.418,131.226L244.248,87.611L207.838,81.163L194.185,99.368L181.669,72.44L142.225,48.546L114.159,63.717L81.922,40.582L37.927,72.44L25.411,99.368L-3.413,128.192L28.066,163.843" style="fill:rgb(227,253,255);"/>
    </g>
    <g transform="matrix(1,0,0,1,-1,-39.4437)">
        <path d="M9.024,136.142L94.058,188.496L177.118,171.049L215.803,177.876L255.626,157.775L289.76,150L255.626,150L206.7,167.636L172.946,146.207L132.364,153.793L106.953,138.432L86.852,157.775L56.89,150L9.024,136.142Z" style="fill:rgb(202,203,245);"/>
    </g>
</svg>
