<?xml version="1.0" encoding="UTF-8" standalone="no"?>
<!DOCTYPE svg PUBLIC "-//W3C//DTD SVG 1.1//EN" "http://www.w3.org/Graphics/SVG/1.1/DTD/svg11.dtd">
<svg width="100%" height="100%" viewBox="0 0 293 137" version="1.1" style="fill-rule:evenodd;clip-rule:evenodd;stroke-linejoin:round;stroke-miterlimit:2;">
    <g transform="matrix(0.747332,0,0,0.747332,-5.39922,-28.2593)">
        <path d="M34.206,150.141L47.594,110.086L87.215,90.275L100.789,97.245L123.168,61.66L173.795,52.488L178.564,61.66L202.777,37.814L241.665,70.831L247.535,105.683L266.978,85.873L292.659,90.275L313.203,122.192L350.623,144.204L361.996,186.76L398.715,199.967L317.849,217.282L247.535,205.67L188.989,220.511L98.474,199.967L43.511,209.654L7.225,174.331L34.206,150.141Z" style="fill:rgb(227,253,255);"/>
    </g>
    <g transform="matrix(1,0,0,1,-3.71347,-34.5808)">
        <path d="M24.388,140.092L39.704,157.314L75.163,150L141.712,162.49L176.219,150L203.579,157.314L245.234,162.49L207.029,150L194.952,134.916L168.086,129.987L155.022,111.254L130.731,117.909L108.476,134.916L91.677,127.768L58.896,127.768L39.704,145.515L24.388,140.092Z" style="fill:rgb(202,203,245);"/>
    </g>
</svg>
