<?xml version="1.0" encoding="UTF-8" standalone="no"?>
<!DOCTYPE svg PUBLIC "-//W3C//DTD SVG 1.1//EN" "http://www.w3.org/Graphics/SVG/1.1/DTD/svg11.dtd">
<svg width="426px" height="112px" viewBox="0 0 426 112" version="1.1" xmlns="http://www.w3.org/2000/svg" xmlns:xlink="http://www.w3.org/1999/xlink" xml:space="preserve" style="fill-rule:evenodd;clip-rule:evenodd;stroke-linejoin:round;stroke-miterlimit:2;">
    <g transform="matrix(1.63658,0,0,0.568809,-1071.18,-178.08)">
        <rect x="701.421" y="410.156" width="175.295" height="2.74" style="fill:rgb(39,39,39);"/>
    </g>
    <g transform="matrix(1.06207,0,0,0.924748,64.0164,1.55847)">
        <path d="M279.4,59.714L340.173,21.173L340.173,23.373L282.022,59.714L279.4,59.714Z" style="fill:rgb(39,39,39);"/>
    </g>
    <g transform="matrix(1.06207,0,0,-0.924748,64.0164,110.442)">
        <path d="M279.4,59.714L340.173,21.173L340.173,23.373L282.022,59.714L279.4,59.714Z" style="fill:rgb(39,39,39);"/>
    </g>
    <g transform="matrix(0.30214,-0.0153929,0.0153929,0.30214,-9.07926,-84.6438)">
        <path d="M230.072,337.086C234.744,335.623 252.712,333.148 301.642,339.772C318.087,341.998 394.993,356.665 398.133,357.169C437.328,363.467 479.408,376.244 508.038,375.222C527.665,374.521 550.428,386.477 568.785,370.842C586.845,355.459 595.348,337.624 609.523,325.173C622.427,313.839 634.003,316.734 643.497,327.414C648.318,332.838 655.954,342.73 661.344,357.421C668.806,377.762 671.083,381.253 669.652,393.312C665.409,429.075 646.211,434.442 615.41,433.05C566.502,430.841 477.32,450.435 453.301,453.428C357.913,465.316 330.05,463.866 273.024,477.395C259.39,480.629 213.935,512.928 213.935,512.928L182.895,510.22C182.895,510.22 191.262,489.78 183.559,482.277C176.643,475.541 149.631,476.057 126.773,472.948C111.345,470.849 64.015,440.67 59.605,438.706C54.877,436.601 43.207,421.272 45.907,399.305C46.682,393.001 43.368,381.473 52.685,375.635C72.128,363.454 153.202,375.755 170.389,370.003C181.655,366.233 223.139,339.257 230.072,337.086Z" style="fill:rgb(239,236,235);"/>
        <clipPath id="_clip1">
            <path d="M230.072,337.086C234.744,335.623 252.712,333.148 301.642,339.772C318.087,341.998 394.993,356.665 398.133,357.169C437.328,363.467 479.408,376.244 508.038,375.222C527.665,374.521 550.428,386.477 568.785,370.842C586.845,355.459 595.348,337.624 609.523,325.173C622.427,313.839 634.003,316.734 643.497,327.414C648.318,332.838 655.954,342.73 661.344,357.421C668.806,377.762 671.083,381.253 669.652,393.312C665.409,429.075 646.211,434.442 615.41,433.05C566.502,430.841 477.32,450.435 453.301,453.428C357.913,465.316 330.05,463.866 273.024,477.395C259.39,480.629 213.935,512.928 213.935,512.928L182.895,510.22C182.895,510.22 191.262,489.78 183.559,482.277C176.643,475.541 149.631,476.057 126.773,472.948C111.345,470.849 64.015,440.67 59.605,438.706C54.877,436.601 43.207,421.272 45.907,399.305C46.682,393.001 43.368,381.473 52.685,375.635C72.128,363.454 153.202,375.755 170.389,370.003C181.655,366.233 223.139,339.257 230.072,337.086Z"/>
        </clipPath>
        <g clip-path="url(#_clip1)">
            <g transform="matrix(0.998705,0.05088,-0.05088,0.998705,33.769,-40.8316)">
                <path d="M646.089,445.01L657.297,420.224C657.297,420.224 236.711,434.96 34.058,430.77L34.058,465.082C182.337,659.07 313.854,459.867 646.089,445.01Z" style="fill:rgb(199,28,0);"/>
            </g>
            <g transform="matrix(0.998705,0.05088,-0.05088,0.998705,26.3559,-22.6482)">
                <path d="M701.85,406.236C471.704,416.355 229.813,423.948 40.536,426.498L37.354,436.446L693.591,412.05L701.85,406.236Z" style="fill:rgb(239,236,235);"/>
            </g>
        </g>
    </g>
    <g transform="matrix(0.307705,-2.0159e-18,2.0159e-18,0.307705,-17.7793,-84.3578)">
        <circle cx="252.709" cy="511.314" r="37.592" style="fill:rgb(39,39,39);"/>
        <clipPath id="_clip2">
            <circle cx="252.709" cy="511.314" r="37.592"/>
        </clipPath>
        <g clip-path="url(#_clip2)">
            <g transform="matrix(0.37968,3.85186e-34,-3.85186e-34,0.37968,156.76,317.178)">
                <circle cx="252.709" cy="511.314" r="37.592" style="fill:rgb(173,172,171);"/>
            </g>
        </g>
    </g>
    <g transform="matrix(0.302532,0,0,0.302532,-1.4647,-91.8924)">
        <path d="M225.861,347.829C225.541,346.626 205.112,331.469 205.112,331.469L398.563,339.529C398.563,339.529 357.036,357.571 356.894,357.548C323.983,352.384 225.892,347.946 225.861,347.829Z" style="fill:rgb(227,222,220);"/>
    </g>
    <g transform="matrix(0.398658,0,0,0.355354,-10.3129,-114)">
        <path d="M54.203,408.364C54.762,413.033 54.37,417.151 54.203,430.859C54.13,436.803 45.595,432.733 33.605,427.115C28.414,424.683 25.473,423.202 25.912,419.133C26.226,416.229 29.32,414.739 33.605,412.07C44.321,405.397 53.475,402.287 54.203,408.364Z" style="fill:rgb(173,172,171);"/>
    </g>
    <g transform="matrix(0.299342,0,0,0.302532,-6.34056,-87.6635)">
        <path d="M606.349,381.025C611.944,376.904 639.59,376.289 659.352,376.058C677.467,375.846 710.623,376.754 716.093,381.025C721.499,385.247 688.552,391.944 669.863,390.723C663.731,390.323 644.753,387.495 634.195,386.423C614.63,384.436 602.85,383.602 606.349,381.025Z" style="fill:rgb(255,36,0);"/>
    </g>
    <g transform="matrix(0.374224,0,0,0.374224,-65.8171,-122.159)">
        <circle cx="678.252" cy="454.32" r="13.86" style="fill:rgb(39,39,39);"/>
    </g>
    <g transform="matrix(0.374224,0,0,0.374224,-65.8171,-122.159)">
        <path d="M642.031,425.669C646.995,431.29 672.886,429.304 674.328,456.026C674.602,461.106 683.47,457.396 682.236,453.811C674.299,430.736 659.96,427.888 653.223,424.816C650.909,423.76 640.347,423.763 642.031,425.669Z" style="fill:rgb(173,172,171);"/>
    </g>
    <g transform="matrix(0.302532,0,0,0.302532,-1.4647,-91.8924)">
        <path d="M186.938,394.064C170.497,393.36 160.263,385.915 160.263,385.915C171.323,381.577 178.622,372.269 193.856,363.2C204.893,356.629 214.848,353.341 217.315,351.258C251.999,353.347 354.234,358.596 365.914,363.147C365.914,363.147 350.61,360.104 365.914,363.147C377.702,365.491 378.096,374.114 382.998,384.384C386.905,392.57 354.741,393.3 303.645,394.064C268.28,394.592 197.742,394.526 186.938,394.064Z" style="fill:rgb(156,161,201);"/>
    </g>
    <g transform="matrix(0.320105,0,0,0.236766,4.29853,-67.5953)">
        <rect x="254.905" y="351.313" width="8.396" height="50.065" style="fill:rgb(239,236,235);"/>
    </g>
    <g transform="matrix(0.213915,0.134001,-0.182137,0.290757,76.5869,-122.639)">
        <path d="M264.019,349.806L254.731,352.255L239.855,407.61L251.09,403.548L264.019,349.806Z" style="fill:rgb(239,236,235);"/>
    </g>
    <g transform="matrix(0.281785,-0.00715809,0.00748317,0.294582,-0.674907,-84.3667)">
        <path d="M236.364,331.962C236.364,331.962 287.462,447.503 296.492,467.661C299.295,473.917 305.258,470.684 303.446,464.576C297.539,444.673 248.962,332.268 248.962,332.268L236.364,331.962Z" style="fill:rgb(255,36,0);"/>
    </g>
    <g transform="matrix(-0.200718,-0.0436693,-0.0627409,0.288377,178.228,-70.7899)">
        <path d="M258.127,328.624C258.127,328.624 285.942,445.444 294.972,465.602C297.775,471.859 305.258,470.684 303.446,464.576C297.539,444.673 273.714,330.988 273.714,330.988L258.127,328.624Z" style="fill:rgb(255,36,0);"/>
    </g>
    <g transform="matrix(0.302532,0,0,0.302532,-3.77774e-16,-3.24442)">
        <path d="M426.05,43.332C427.056,46.415 419.69,46.723 397.021,47.283C350.138,48.443 305.184,47.166 257.032,45.247C216.788,43.644 204.095,45.773 191.19,40.032C179.966,35.039 183.067,28.24 188.866,23.426C204.155,10.735 229.171,8.588 260.568,12.471C315.609,19.28 315.92,24.003 368.192,28.935C412.894,33.154 422.827,33.452 426.05,43.332Z" style="fill:rgb(255,36,0);"/>
    </g>
    <g class="prop-2" transform="matrix(0.122541,0,0,0.169414,-1.95645,-49.3798)">
        <ellipse cx="62.525" cy="418.153" rx="16.516" ry="58.977" style="fill:rgb(151,151,151);"/>
    </g>
    <g class="prop-1" transform="matrix(0.122541,0,0,0.169414,-1.95645,-22.3214)">
        <ellipse cx="62.525" cy="418.153" rx="16.516" ry="58.977" style="fill:rgb(151,151,151);"/>
    </g>
</svg>
