<?xml version="1.0" encoding="UTF-8" standalone="no"?>
<!DOCTYPE svg PUBLIC "-//W3C//DTD SVG 1.1//EN" "http://www.w3.org/Graphics/SVG/1.1/DTD/svg11.dtd">
<svg width="100%" height="100%" viewBox="0 0 284 138" version="1.1" xmlns="http://www.w3.org/2000/svg" xmlns:xlink="http://www.w3.org/1999/xlink" xml:space="preserve" xmlns:serif="http://www.serif.com/" style="fill-rule:evenodd;clip-rule:evenodd;stroke-linejoin:round;stroke-miterlimit:1.41421;">
    <g transform="matrix(0.747332,0,0,0.747332,-2.16184,-27.9102)">
        <path d="M34.206,150.141C32.791,142.822 29.741,129.625 31.803,122.192C37.821,100.495 68.579,73.776 100.789,97.245C100.789,97.245 94.54,74.34 110.495,55.598C126.338,36.989 173.486,33.204 178.564,61.66C205.127,19.954 247.322,38.288 254.127,68.95C255.674,75.918 256.849,87.428 257.055,92.719C257.055,92.719 259.67,87.725 266.978,85.873C294.113,78.995 315.092,91.763 313.203,122.192C353.28,125.064 366.818,148.722 361.996,186.76C361.996,186.76 383.031,188.677 382.366,206.145C381.336,233.209 246.955,215.993 245.871,209.654C245.871,209.654 233.477,219.768 188.989,220.511C129.046,221.513 98.712,203.77 98.712,203.77C69.469,214.709 -12.253,212.997 5.351,173.26C14.371,152.901 34.206,150.141 34.206,150.141Z" style="fill:rgb(227,253,255);"/>
    </g>
    <g transform="matrix(1,0,0,1,-2.87663,-34.0317)">
        <path d="M24.388,140.092C18.088,148.443 32.164,155.843 39.704,157.314C48.167,158.965 63.535,146.768 75.163,150C91.442,154.524 124.041,166.689 141.712,162.49C153.614,159.662 165.908,150.863 176.219,150C185.627,149.213 194.29,155.633 203.579,157.314C215.081,159.396 244.658,163.709 245.234,162.49C245.809,161.271 215.41,154.596 207.029,150C201.382,146.903 200.681,137.86 194.952,134.916C188.461,131.581 174.741,133.93 168.086,129.987C161.537,126.106 161.248,113.267 155.022,111.254C148.797,109.241 138.215,114.105 130.731,117.909C122.974,121.853 114.985,133.273 108.476,134.916C102.576,136.406 97.086,130.557 91.677,127.768C81.854,122.703 66.884,123.139 58.896,127.768C51.357,132.137 45.456,141.66 39.704,143.714C34.764,145.479 27.717,135.681 24.388,140.092Z" style="fill:rgb(202,203,245);"/>
    </g>
</svg>
