<svg xmlns="http://www.w3.org/2000/svg" xmlns:xlink="http://www.w3.org/1999/xlink" width="100%" height="100%" viewBox="0 0 294 173" version="1.1" fillRule="evenodd" clipRule="evenodd" strokeLinejoin="round" strokeMiterlimit="2">
    <g transform="matrix(0.961397,0,0,0.961397,-8.09269,-44.0348)">
        <path d="M14.412,160.051C9.777,150.69 6.921,132.355 9.24,121.124C11.564,109.873 18.327,100.185 27.561,95.713C43.518,87.985 57.292,92.541 57.292,92.541C57.292,92.541 66.114,80.531 71.799,78.129C77.484,75.727 91.403,78.129 91.403,78.129C91.403,78.129 98.487,67.197 102.279,64.432C112.885,56.7 132.717,55.251 143.07,59.672C156.291,65.318 164.223,78.129 164.223,78.129C164.223,78.129 176.323,56.411 191.53,50.442C207.289,44.256 231.569,44.256 242.767,50.442C263.473,61.881 268.521,83.439 268.521,83.439C268.521,83.439 292.87,94.805 300,105.436C307.508,116.63 313.567,131.278 313.567,150.603C313.567,166.191 303.639,182.837 284.071,197.598C267.151,210.361 213.162,215.046 203.287,209.735C199.403,207.645 191.53,203.666 191.53,203.666C191.53,203.666 161.607,225.543 133.795,225.543C111.422,225.543 75.392,217.394 61.257,203.666C53.616,196.246 49.259,186.782 49.259,186.782C49.259,186.782 38.077,186.059 33.877,182.837C28.069,178.382 18.845,169.003 14.412,160.051Z" fill="rgb(227,253,255)"/>
    </g>
    <g transform="matrix(1,0,0,1,-5.37878,-51.063)">
        <path d="M32.404,171.391C27.22,176.254 43.435,172.377 47.038,175.601C50.641,178.824 49.63,190.893 54.994,194.943C62.2,200.385 92.541,210.216 92.541,208.249C92.541,206.283 67.705,189.73 60.499,182.708C56.213,178.532 54.851,164.607 51.248,163.35C47.645,162.093 37.909,166.226 32.404,171.391Z" fill="rgb(202,203,245)"/>
    </g>
    <g transform="matrix(1,0,0,1,-2.72391,-49.2456)">
        <path d="M128.988,212.786C142.642,213.545 160.917,192.668 180.382,192.668C184.454,192.668 197.672,202.528 201.743,202.528C220.507,202.528 248.737,194.19 264.793,185.436C277.31,178.61 296.018,150 291.277,150C286.536,150 250.19,182.664 238.938,185.477C231.176,187.418 229.34,165.651 222.796,161.049C214.389,155.136 205.394,145.878 193.029,150C180.134,154.298 155.495,185.115 144.876,190.077C137.274,193.629 128.613,182.039 121.217,182.039C113.821,182.039 102.67,186.41 102.67,192.668C102.67,198.925 117.822,212.166 128.988,212.786Z" fill="rgb(202,203,245)"/>
    </g>
</svg>