<svg xmlns="http://www.w3.org/2000/svg" xmlns:xlink="http://www.w3.org/1999/xlink" width="100%" height="100%" viewBox="0 0 281 186" version="1.1" fillRule="evenodd" clipRule="evenodd" strokeLinejoin="round" strokeMiterlimit="2">
    <g transform="matrix(0.845693,0,0,0.845693,-14.3613,-24.3538)">
        <path d="M52.525,207.641C39.807,199.144 11.241,193.298 18.003,147.543C22.336,118.218 56.131,109.273 56.131,109.273C56.131,109.273 55.649,76.563 75.095,60.348C90.449,47.545 120.607,56.555 120.607,56.555C120.607,56.555 132.485,28.797 162.282,28.797C201.652,28.797 224.307,56.555 224.307,56.555C224.307,56.555 249.828,46.68 264.816,49.986C280.356,53.414 304.059,70.148 312.137,85.238C325.002,109.273 319.593,129.586 319.593,129.586C319.593,129.586 349.068,144.839 349.068,168.211C349.068,191.479 332.31,204.359 312.137,214.824C283.575,229.639 219.918,251.063 176.8,247.187C125.868,242.61 65.124,216.058 52.525,207.641Z" fill="rgb(227,253,255)"/>
    </g>
    <g transform="matrix(0.910674,0,0,0.910674,2.38816,-43.2299)">
        <path d="M9.42,161.022C-0.2,156.026 19.684,188.534 32.936,202.076C39.027,208.301 64.24,221.381 72.471,224.23C88.684,229.84 120.846,245.39 146.397,244.627C172.828,243.837 205.889,219.492 229.873,219.492C238.568,219.492 252.533,219.758 259.906,215.15C271.107,208.151 301.873,186.195 298.259,177.497C297.359,175.331 271.244,207.57 249.671,207.57C241.286,207.57 252.423,192.344 249.671,188.673C245.913,183.661 236.324,176.307 227.125,177.497C216.465,178.875 200.931,204.595 185.713,202.076C180.328,201.185 176.558,188.464 170.153,181.839C157.305,168.549 135.101,157.3 124.072,161.022C115.357,163.964 116.367,182.482 107.532,193.805C99.614,203.955 87.691,207.57 81.14,207.57C71.469,207.57 39.557,194.26 28.593,181.839C19.85,171.935 15.045,163.944 9.42,161.022Z" fill="rgb(202,203,245)"/>
    </g>
</svg>