<svg xmlns="http://www.w3.org/2000/svg" xmlns:xlink="http://www.w3.org/1999/xlink" width="100%" height="100%" viewBox="0 0 225 150" version="1.1" fillRule="evenodd" clipRule="evenodd" strokeLinejoin="round" strokeMiterlimit="2">
    <g transform="matrix(0.764318,0,0,0.764318,-2.93141,-31.9811)">
        <g transform="matrix(0.907547,0,0,0.907547,9.24695,0.956913)">
            <path d="M57.312,157.122C57.312,157.122 54.877,89.483 85.552,68.753C135.474,35.018 178.664,80.108 184.509,85.115C195.352,94.404 206.809,131.135 206.809,131.135C206.809,131.135 215.788,114.383 223.12,110.63C234.592,104.758 250.902,106.862 262.618,116.903C285.074,136.148 276.261,153.982 276.261,153.982C276.261,153.982 303.586,161.618 310.387,169.014C316.497,175.659 320.677,190.082 317.067,198.357C312.358,209.15 303.491,221.562 284.234,232.515C264.182,243.921 220.53,251.663 189.129,249.725C154.3,247.576 73.578,227.181 73.578,227.181C73.578,227.181 36.354,234.405 23.201,227.181C10.047,219.957 -2.993,196.774 -5.341,183.836C-10.189,157.122 14.375,136.148 31.537,136.148C48.58,136.148 57.312,157.122 57.312,157.122Z" fill="rgb(227,253,255)"/>
        </g>
        <path d="M45.554,202.168C28.378,202.168 18.841,188.009 17.829,180.55C16.84,173.252 24.514,163.977 31.862,163.483C40.333,162.914 60.3,173.903 67.508,172.926C74.716,171.95 68.651,162.842 74.348,153.812C78.581,147.101 95.451,143.684 105.088,146.069C111.476,147.649 124.542,156.119 134.286,167.313C143.439,177.829 149.302,191.064 154.741,193.805C165.153,199.053 161.946,185.169 171.471,180.55C182.781,175.067 193.687,187.417 197.968,193.805C202.803,201.021 198.459,204.426 206.687,207.443C217.371,211.362 257.418,201.864 252.164,207.443C249.213,210.577 207.193,219.957 184.31,219.957C163.012,219.957 139.446,214.665 124.781,210.493C115.752,207.925 108.268,199.771 98.989,198.357C85.721,196.334 66.26,202.168 45.554,202.168Z" fill="rgb(202,203,245)"/>
    </g>
</svg>