<svg xmlns="http://www.w3.org/2000/svg" xmlns:xlink="http://www.w3.org/1999/xlink" width="100%" height="100%" viewBox="0 0 276 181" version="1.1" fillRule="evenodd" clipRule="evenodd" strokeLinejoin="round" strokeMiterlimit="2">
    <g transform="matrix(1,0,0,1,-8.61354,-56.2377)">
        <path d="M8.723,150C9.861,138.243 15.544,120.607 33.753,114.515C48.071,109.726 63.717,120.607 63.717,120.607C63.717,120.607 60.611,108.41 68.622,97.491C78.847,83.556 107.917,68.988 123.242,73.189C136.11,76.716 142.612,84.936 142.612,84.936C142.612,84.936 154.529,59.941 180.512,56.511C204.739,53.312 236.216,78.979 241.972,93.679C245.765,103.364 245.765,120.607 245.765,120.607C245.765,120.607 261.334,121.525 267.395,129.727C279.786,146.496 273.072,164.223 273.072,164.223C273.072,164.223 286.919,168.84 283.692,187.358C280.741,204.284 250.952,220.9 229.456,227.56C204.362,235.335 165.168,238.948 139.188,235.914C117.851,233.422 87.814,227.56 73.578,214.311C68.444,209.533 60.286,193.821 60.286,193.821C60.286,193.821 33.804,189.979 24.639,183.184C15.473,176.389 7.585,161.757 8.723,150Z" fill="rgb(227,253,255)"/>
    </g>
    <g transform="matrix(1,0,0,1,-8.61354,-56.2377)">
        <path d="M74.601,150C73.688,153.932 61.649,158.336 61.649,167.777C61.649,179.772 70.013,179.772 63.717,183.186C60.58,184.887 44.94,181.277 39.402,177.887C31.374,172.972 18.128,153.95 15.544,153.697C12.959,153.444 21.094,173.823 28.824,179.772C36.853,185.951 55.785,185.645 63.717,190.771C70.292,195.021 69.48,206.894 76.413,210.529C88.107,216.661 113.951,226.154 133.881,227.56C158.883,229.324 204.93,227.244 226.422,221.113C241.614,216.778 264.539,191.656 262.832,190.771C261.125,189.886 228.919,212.51 216.182,215.803C206.424,218.326 196.481,218.326 188.706,210.529C185.328,207.141 191.115,191.975 188.706,183.186C186.491,175.102 179.954,164.201 166.848,164.201C153.741,164.201 137.734,190.771 110.613,196.46C104.477,197.747 119.334,179.491 113.585,177.887C98.574,173.7 83.293,186.539 76.413,185.841C72.387,185.432 75.191,177.558 76.413,173.7C81.507,157.628 112.833,146.611 110.613,146.611C86.687,146.611 80.447,162.936 76.413,160.454C72.38,157.971 81.084,147.775 89.314,140.882C97.691,133.865 118.668,132.827 117.96,131.58C117.253,130.333 105.866,131.092 94.823,134.453C87.862,136.571 76.891,140.138 74.601,150Z" fill="rgb(202,203,245)"/>
    </g>
</svg>